<svg xmlns="http://www.w3.org/2000/svg" viewBox="0 0 400 120" fill="none">
  <!-- Colorful Circle Icon -->
  <g id="circle-icon">
    <!-- Red Quarter -->
    <path d="M 70 30 L 70 60 L 85 45 Z" fill="#C41E3A"/>
    <!-- Yellow Quarter -->
    <path d="M 70 60 L 100 60 L 85 45 Z" fill="#F39C12"/>
    <!-- Blue Quarter -->
    <path d="M 40 60 L 70 60 L 55 75 Z" fill="#2980B9"/>
    <!-- Pink/Magenta Quarter -->
    <path d="M 70 60 L 70 90 L 55 75 Z" fill="#E91E63"/>
    <!-- Center Circle (optional, for depth) -->
    <circle cx="70" cy="60" r="3" fill="#1a1a1a" opacity="0.3"/>
  </g>
  
  <!-- "Tfour" Text -->
  <g id="tfour-text" fill="#E8D5B7">
    <!-- T -->
    <path d="M 10 25 L 10 35 L 20 35 L 20 95 L 35 95 L 35 35 L 45 35 L 45 25 Z"/>
    
    <!-- f -->
    <path d="M 50 45 L 50 55 L 45 55 L 45 65 L 50 65 L 50 95 L 62 95 L 62 65 L 70 65 L 70 55 L 62 55 L 62 50 Q 62 45 67 45 L 70 45 L 70 35 L 65 35 Q 50 35 50 50 Z"/>
    
    <!-- Circle (already drawn above) -->
    
    <!-- u -->
    <path d="M 105 55 L 105 80 Q 105 90 115 90 Q 125 90 125 80 L 125 55 L 137 55 L 137 82 Q 137 100 120 100 Q 103 100 103 82 L 103 55 Z"/>
    
    <!-- r -->
    <path d="M 145 55 L 145 95 L 157 95 L 157 70 Q 157 60 165 60 Q 170 60 170 65 L 170 55 Q 160 55 157 62 L 157 55 Z"/>
  </g>
  
  <!-- "Technologies" Text (smaller, below) -->
  <g id="technologies-text" fill="#E8D5B7">
    <text x="10" y="115" font-family="serif" font-size="16" font-weight="300" letter-spacing="2">Technologies</text>
  </g>
</svg>
